<?xml version="1.0" encoding="utf-8"?>
<!-- Generator: Adobe Illustrator 15.0.2, SVG Export Plug-In . SVG Version: 6.00 Build 0)  -->
<!DOCTYPE svg PUBLIC "-//W3C//DTD SVG 1.1//EN" "http://www.w3.org/Graphics/SVG/1.1/DTD/svg11.dtd">
<svg version="1.1" xmlns="http://www.w3.org/2000/svg" xmlns:xlink="http://www.w3.org/1999/xlink" x="0px" y="0px" width="96px"
	 height="96px" viewBox="0 0 96 96" enable-background="new 0 0 96 96" xml:space="preserve">
<g id="DO_NOT_EDIT_-_BOUNDING_BOX">
	<rect id="BOUNDING_BOX" fill="none" width="96" height="96"/>
</g>
<g id="DO_NOT_EDIT_-_SHADOW">
	<path id="SHADOW" opacity="0.4" d="M88.023,49c0,29.633-10.364,40-40,40c-29.635,0-40-10.367-40-40c0-29.634,10.366-40,40-40
		C77.659,9,88.023,19.365,88.023,49z"/>
</g>
<g id="PLACE_YOUR_GRAPHIC_HERE">
	<g id="CUT_AWAY_SOURROUND_SHAPE">
		
			<linearGradient id="SVGID_1_" gradientUnits="userSpaceOnUse" x1="7926.0508" y1="823.4834" x2="7926.0508" y2="903.4824" gradientTransform="matrix(-1 0 0 1 7974.0742 -815.8408)">
			<stop  offset="0" style="stop-color:#FFFFFF"/>
			<stop  offset="1" style="stop-color:#CCCAC6"/>
		</linearGradient>
		<path fill="url(#SVGID_1_)" d="M8.023,47.98c0,29.635,10.36,39.999,40,39.999c29.631,0,40-10.363,40-39.999
			c0-29.633-10.369-40.001-40-40.001C18.386,7.979,8.023,18.347,8.023,47.98z"/>
		<path opacity="0.15" enable-background="new    " d="M26.416,66.182c-1.941,0-3.517-1.572-3.517-3.512V33.033
			c0-1.939,1.576-3.515,3.517-3.515h0.346c0.449-1.432,1.781-2.471,3.356-2.471h3.705c1.575,0,2.912,1.042,3.358,2.471h32.451
			c1.939,0,3.516,1.576,3.516,3.515V62.67c0,1.939-1.576,3.512-3.516,3.512H26.416z M48.024,37.784
			c-5.891,0-10.685,4.794-10.685,10.685c0,5.893,4.794,10.684,10.685,10.684c5.888,0,10.684-4.791,10.684-10.684
			C58.708,42.578,53.912,37.784,48.024,37.784L48.024,37.784z M31.354,34.08c-0.783,0-1.421,0.638-1.421,1.421
			c0,0.786,0.638,1.421,1.421,1.421c0.785,0,1.422-0.635,1.422-1.421S32.139,34.08,31.354,34.08L31.354,34.08z M67.407,35.692
			v-1.199h-5.373v1.199H67.407L67.407,35.692z M48.024,58.775c-5.687,0-10.307-4.625-10.307-10.307
			c0-5.684,4.62-10.309,10.307-10.309c5.684,0,10.306,4.625,10.306,10.309C58.33,54.15,53.708,58.775,48.024,58.775L48.024,58.775z
			 M48.024,42.721c-3.168,0-5.742,2.579-5.742,5.747c0,3.165,2.574,5.743,5.742,5.743c3.166,0,5.742-2.578,5.742-5.743
			C53.766,45.3,51.189,42.721,48.024,42.721L48.024,42.721z"/>
		<path opacity="0.3" enable-background="new    " d="M48.024,40.253c-5.116,0-9.259,4.144-9.259,9.263
			c0,5.113,4.144,9.26,9.259,9.26c5.118,0,9.261-4.146,9.261-9.26C57.285,44.397,53.142,40.253,48.024,40.253z M48.024,56.307
			c-3.746,0-6.793-3.045-6.793-6.791c0-3.75,3.047-6.792,6.793-6.792c3.745,0,6.789,3.043,6.789,6.792
			C54.813,53.262,51.769,56.307,48.024,56.307z M69.631,31.612H36.293c0-1.368-1.106-2.471-2.471-2.471H30.12
			c-1.365,0-2.469,1.107-2.469,2.471h-1.235c-1.363,0-2.471,1.104-2.471,2.468v29.633c0,1.365,1.109,2.469,2.471,2.469h43.215
			c1.367,0,2.469-1.104,2.469-2.469V34.08C72.1,32.716,70.998,31.612,69.631,31.612z M31.354,39.02
			c-1.363,0-2.467-1.104-2.467-2.472c0-1.36,1.104-2.467,2.467-2.467c1.362,0,2.468,1.108,2.468,2.467
			C33.822,37.915,32.719,39.02,31.354,39.02z M48.024,61.244c-6.48,0-11.731-5.252-11.731-11.729c0-6.48,5.251-11.732,11.731-11.732
			s11.729,5.251,11.729,11.732C59.753,55.992,54.504,61.244,48.024,61.244z M68.456,37.784h-7.469v-3.291h7.469V37.784z"/>
		
			<linearGradient id="SVGID_2_" gradientUnits="userSpaceOnUse" x1="48.0771" y1="69.0439" x2="48.0771" y2="32.0024" gradientTransform="matrix(1 0 0 -1 -0.0552 97.1387)">
			<stop  offset="0" style="stop-color:#E11E28"/>
			<stop  offset="1" style="stop-color:#8C0F12"/>
		</linearGradient>
		<path fill="url(#SVGID_2_)" d="M48.024,39.206c-5.116,0-9.259,4.145-9.259,9.262c0,5.114,4.144,9.258,9.259,9.258
			c5.118,0,9.261-4.145,9.261-9.258C57.285,43.351,53.142,39.206,48.024,39.206z M48.024,55.258c-3.746,0-6.793-3.047-6.793-6.79
			c0-3.745,3.047-6.792,6.793-6.792c3.745,0,6.789,3.047,6.789,6.792C54.813,52.211,51.769,55.258,48.024,55.258z M69.631,30.562
			H36.293c0-1.363-1.106-2.467-2.471-2.467H30.12c-1.365,0-2.469,1.105-2.469,2.467h-1.235c-1.363,0-2.471,1.108-2.471,2.471V62.67
			c0,1.361,1.109,2.467,2.471,2.467h43.215c1.367,0,2.469-1.105,2.469-2.467V33.033C72.1,31.67,70.998,30.562,69.631,30.562z
			 M31.354,37.973c-1.363,0-2.467-1.108-2.467-2.47c0-1.365,1.104-2.469,2.467-2.469c1.362,0,2.468,1.106,2.468,2.469
			C33.822,36.864,32.719,37.973,31.354,37.973z M48.024,60.195c-6.48,0-11.731-5.252-11.731-11.727
			c0-6.479,5.251-11.732,11.731-11.732s11.729,5.253,11.729,11.732C59.753,54.943,54.504,60.195,48.024,60.195z M68.456,36.736
			h-7.469v-3.292h7.469V36.736z"/>
		<path opacity="0.6" fill="#FFFFFF" d="M31.354,37.973c-1.184,0-2.17-0.834-2.409-1.946c-0.041,0.17-0.062,0.345-0.062,0.521
			c0,1.368,1.107,2.472,2.47,2.472c1.362,0,2.468-1.104,2.468-2.472c0-0.176-0.023-0.351-0.06-0.521
			C33.524,37.139,32.538,37.973,31.354,37.973z M57.285,48.468c0-5.117-4.144-9.262-9.261-9.262c-5.116,0-9.259,4.145-9.259,9.262
			c0,0.178,0.015,0.348,0.026,0.523c0.27-4.87,4.292-8.739,9.231-8.739c4.938,0,8.959,3.865,9.232,8.739
			C57.266,48.816,57.285,48.642,57.285,48.468z M48.024,60.195c-6.305,0-11.429-4.969-11.705-11.204
			c-0.009,0.176-0.026,0.346-0.026,0.524c0,6.477,5.251,11.729,11.731,11.729s11.729-5.252,11.729-11.729
			c0-0.178-0.019-0.348-0.028-0.524C59.45,55.227,54.326,60.195,48.024,60.195z M48.024,55.258c-3.57,0-6.496-2.766-6.764-6.266
			c-0.016,0.174-0.029,0.346-0.029,0.524c0,3.746,3.047,6.791,6.793,6.791c3.745,0,6.789-3.045,6.789-6.791
			c0-0.178-0.012-0.35-0.025-0.524C54.521,52.492,51.591,55.258,48.024,55.258z M69.631,30.562H36.293
			c0-1.363-1.106-2.467-2.471-2.467H30.12c-1.365,0-2.469,1.105-2.469,2.467h-1.235c-1.363,0-2.471,1.108-2.471,2.471v1.047
			c0-1.364,1.109-2.468,2.471-2.468h1.235c0-1.368,1.104-2.471,2.469-2.471h3.702c1.365,0,2.471,1.107,2.471,2.471h33.338
			c1.367,0,2.469,1.104,2.469,2.468v-1.047C72.1,31.67,70.998,30.562,69.631,30.562z M60.987,37.784h7.469v-1.048h-7.469V37.784z"/>
	</g>
</g>
<g id="DO_NOT_EDIT_-_FOCAL_ZONE_GUIDES_ONLY">
</g>
<g id="_DO_NOT_EDIT_-_HIGHLIGHTS">
	<linearGradient id="HIGHLIGHT_RIM_1_" gradientUnits="userSpaceOnUse" x1="47.9995" y1="0" x2="47.9995" y2="144.6673">
		<stop  offset="0" style="stop-color:#FFFFFF"/>
		<stop  offset="1" style="stop-color:#000000"/>
	</linearGradient>
	<path id="HIGHLIGHT_RIM" fill="url(#HIGHLIGHT_RIM_1_)" fill-opacity="0.25" d="M48,7.979c-29.635,0-40,10.365-40,40
		c0,29.633,10.365,40,40,40c29.637,0,40-10.367,40-40C88,18.344,77.637,7.979,48,7.979z M48,87.002c-29.159,0-39-9.848-39-39.024
		C9,18.803,18.841,8.956,48,8.956c29.158,0,39,9.847,39,39.022C87,77.154,77.158,87.002,48,87.002z"/>
	<g id="DARK_BEVEL">
		<path id="SQUIRCLE" display="none" fill="#FFFFFF" fill-opacity="0.05" d="M48,87.979c-29.635,0-40-10.367-40-40
			c0-29.634,10.365-40,40-40c29.637,0,40,10.365,40,40C88,77.611,77.637,87.979,48,87.979z"/>
		<path opacity="0.02" d="M9.478,64.25C13.244,81.519,24.624,87.979,48,87.979c23.378,0,34.756-6.46,38.522-23.729H9.478z"/>
		<path opacity="0.02" d="M10.242,67.25C14.659,82.271,26.031,87.979,48,87.979c21.971,0,33.342-5.708,37.758-20.729H10.242z"/>
		<path opacity="0.02" d="M11.258,70.25C16.284,83.041,27.555,87.979,48,87.979c20.446,0,31.717-4.938,36.742-17.729H11.258z"/>
		<path opacity="0.02" d="M12.636,73.25C18.211,83.815,29.241,87.979,48,87.979c18.76,0,29.79-4.163,35.365-14.729H12.636z"/>
		<path opacity="0.02" d="M13.797,75.25C19.685,84.348,30.47,87.979,48,87.979c17.531,0,28.316-3.631,34.203-12.729H13.797z"/>
		<path opacity="0.02" d="M15.255,77.25C21.396,84.878,31.821,87.979,48,87.979c16.18,0,26.604-3.101,32.745-10.729H15.255z"/>
		<path fill-opacity="0.02" d="M17.059,79.25c6.305,6.177,16.254,8.729,30.941,8.729c14.688,0,24.638-2.552,30.942-8.729H17.059z"/>
	</g>
	<g id="LIGHT_BEVEL">
		<path opacity="0.01" fill="#FFFFFF" d="M48,8.979c-29.635,0-40,10.365-40,40c0,2.888,0.102,5.588,0.307,8.119l0.219,0.02h78.958
			l0.21-0.019c0.205-2.531,0.307-5.23,0.307-8.12C88,19.344,77.637,8.979,48,8.979z"/>
		<path opacity="0.01" fill="#FFFFFF" d="M48,7.979c-29.635,0-40,10.365-40,40c0,1.051,0.017,2.073,0.043,3.077l0.701,0.062H87.26
			l0.697-0.063C87.983,50.051,88,49.029,88,47.978C88,18.344,77.637,7.979,48,7.979z"/>
		<path opacity="0.01" fill="#FFFFFF" d="M8.965,46.116h78.072l0.941-0.084C87.521,17.897,76.975,7.979,48,7.979
			c-28.973,0-39.521,9.919-39.978,38.054L8.965,46.116z"/>
		<path opacity="0.01" fill="#FFFFFF" d="M9.186,41.116h77.628l0.961-0.086C86.147,16.713,75.187,7.979,48,7.979
			c-27.185,0-38.147,8.735-39.775,33.053L9.186,41.116z"/>
		<path opacity="0.01" fill="#FFFFFF" d="M9.186,37.116h77.628c0.201,0,0.397-0.036,0.594-0.066
			C84.854,15.753,73.648,7.979,48,7.979c-25.646,0-36.854,7.774-39.408,29.072C8.789,37.08,8.984,37.116,9.186,37.116z"/>
		<path opacity="0.01" fill="#FFFFFF" d="M48,7.979c-24.004,0-35.363,6.805-38.814,25.138h77.628
			C83.363,14.783,72.006,7.979,48,7.979z"/>
		<path opacity="0.01" fill="#FFFFFF" d="M84.074,29.67l1.6-0.376c0.083-0.02,0.158-0.058,0.239-0.084
			C81.605,13.805,70.22,7.979,48,7.979c-22.218,0-33.604,5.827-37.913,21.231c0.081,0.026,0.156,0.064,0.239,0.084l1.599,0.376
			c0.226,0.053,0.456,0.08,0.688,0.08h70.773C83.618,29.75,83.849,29.723,84.074,29.67z"/>
		<path opacity="0.01" fill="#FFFFFF" d="M12.613,26.75h70.773l1.6-0.376C80.091,13.093,68.794,7.979,48,7.979
			c-20.792,0-32.09,5.115-36.986,18.395L12.613,26.75z"/>
		<path opacity="0.01" fill="#FFFFFF" d="M12.613,24.75h70.773c0.305,0,0.595-0.081,0.86-0.208C78.999,12.621,67.81,7.979,48,7.979
			c-19.808,0-30.998,4.643-36.247,16.563C12.019,24.669,12.309,24.75,12.613,24.75z"/>
		<path opacity="0.01" fill="#FFFFFF" d="M83.387,22.75C77.82,12.153,66.786,7.979,48,7.979c-18.785,0-29.819,4.174-35.387,14.771
			H83.387z"/>
	</g>
</g>
</svg>
