<?xml version="1.0" encoding="utf-8"?>
<!-- Generator: Adobe Illustrator 15.0.2, SVG Export Plug-In . SVG Version: 6.00 Build 0)  -->
<!DOCTYPE svg PUBLIC "-//W3C//DTD SVG 1.1//EN" "http://www.w3.org/Graphics/SVG/1.1/DTD/svg11.dtd">
<svg version="1.1" id="Layer_1" xmlns="http://www.w3.org/2000/svg" xmlns:xlink="http://www.w3.org/1999/xlink" x="0px" y="0px"
	 width="96px" height="96px" viewBox="0 0 96 96" enable-background="new 0 0 96 96" xml:space="preserve">
<g id="DO_NOT_EDIT_-_BOUNDING_BOX">
	<rect id="BOUNDING_BOX" fill="none" width="96" height="96"/>
</g>
<g id="DO_NOT_EDIT_-_SHADOW">
	<path id="SHADOW" opacity="0.4" enable-background="new    " d="M88.023,49c0,29.633-10.364,40-40,40c-29.635,0-40-10.367-40-40
		c0-29.634,10.366-40,40-40C77.659,9,88.023,19.365,88.023,49z"/>
</g>
<g id="PLACE_YOUR_GRAPHIC_HERE">
	
		<linearGradient id="SVGID_1_" gradientUnits="userSpaceOnUse" x1="1062.6406" y1="1569.9678" x2="1062.6406" y2="1508.1799" gradientTransform="matrix(1 0 0 1 -1014.6406 -1496.8398)">
		<stop  offset="0" style="stop-color:#CEE6F4"/>
		<stop  offset="0.5699" style="stop-color:#00A5DB"/>
		<stop  offset="1" style="stop-color:#0049B5"/>
	</linearGradient>
	<path fill="url(#SVGID_1_)" d="M88,47.979c0,29.634-10.361,40-39.998,40C18.366,87.979,8,77.613,8,47.979
		c0-29.632,10.363-40,40.002-40C77.635,7.982,88,18.349,88,47.979z"/>
	
		<linearGradient id="SVGID_2_" gradientUnits="userSpaceOnUse" x1="318.4541" y1="-332.0356" x2="314.4346" y2="-349.9381" gradientTransform="matrix(1 0 0 -1 -253.6602 -279.96)">
		<stop  offset="0" style="stop-color:#509600"/>
		<stop  offset="1" style="stop-color:#005600"/>
	</linearGradient>
	<path fill="url(#SVGID_2_)" d="M82.855,52.664c-1.068-0.572-31.804,3.59-33.631,5.064c-0.404,0.326-1.84,1.016-2.53,1.481
		c-2.042,1.375-7.26,7.154-10.549,11.757h48.236c1.937-4.582,3.022-10.213,3.402-17.044C86.675,53.711,83.766,53.152,82.855,52.664z
		"/>
	
		<linearGradient id="SVGID_3_" gradientUnits="userSpaceOnUse" x1="299.876" y1="-342.1118" x2="294.9785" y2="-370.6124" gradientTransform="matrix(1 0 0 -1 -253.6602 -279.96)">
		<stop  offset="0" style="stop-color:#509600"/>
		<stop  offset="1" style="stop-color:#005600"/>
	</linearGradient>
	<path fill="url(#SVGID_3_)" d="M8.066,51.66c0.867,26.806,11.566,36.318,39.908,36.318c20.667,0,31.946-5.061,36.883-18.188
		C83.799,69.482,9.539,51.667,8.066,51.66z"/>
	
		<linearGradient id="SVGID_4_" gradientUnits="userSpaceOnUse" x1="301.7422" y1="-333.6162" x2="297.1665" y2="-353.5732" gradientTransform="matrix(1 0 0 -1 -253.6602 -279.96)">
		<stop  offset="0" style="stop-color:#509600"/>
		<stop  offset="1" style="stop-color:#005600"/>
	</linearGradient>
	<path fill="url(#SVGID_4_)" d="M81.48,68.865c-1.418-0.318-10.869-3.521-12.522-4.16c-1.653-0.641-2.835-1.066-3.546-1.493
		c-0.707-0.427-2.598-0.64-4.488-0.959c-1.501-0.254-9.633-2.058-14.039-3.214c-1.143-0.3-2.039-0.559-2.5-0.732
		c-2.244-0.854-8.744-2.021-9.923-2.455c-3.041-1.111-5.553-1.172-6.851-1.278c-1.3-0.106-4.845,0.106-4.845,0.106
		s-6.97-1.922-9.569-2.56c-1.502-0.37-3.658-0.453-5.131-0.46c0.18,5.57,0.793,10.385,1.895,14.531
		c39.014-9.232,46.184,6.601,74.609,4.276c0.092-0.228,0.197-0.442,0.287-0.678C83.799,69.482,82.412,69.076,81.48,68.865z"/>
	
		<linearGradient id="SVGID_5_" gradientUnits="userSpaceOnUse" x1="315.7109" y1="-357.6616" x2="317.2294" y2="-370.3687" gradientTransform="matrix(1 0 0 -1 -253.6602 -279.96)">
		<stop  offset="0" style="stop-color:#509600"/>
		<stop  offset="1" style="stop-color:#005600"/>
	</linearGradient>
	<path fill="url(#SVGID_5_)" d="M42.604,87.85c1.715,0.088,3.504,0.129,5.371,0.129c17.753,0,28.566-3.752,34.395-13.127
		C63.127,74.865,49.872,82.255,42.604,87.85z"/>
	
		<linearGradient id="SVGID_6_" gradientUnits="userSpaceOnUse" x1="284.3018" y1="-305.8696" x2="284.3018" y2="-316.5301" gradientTransform="matrix(1 0 0 -1 -253.6602 -279.96)">
		<stop  offset="0" style="stop-color:#FFFFFF"/>
		<stop  offset="1" style="stop-color:#FFFFFF;stop-opacity:0"/>
	</linearGradient>
	<path fill="url(#SVGID_6_)" d="M41.792,26.005c-0.143-0.107-0.174-0.209-0.479-0.163c-0.303,0.048-0.376,0.243-0.581,0.197
		c-0.203-0.048-0.144-0.233-0.349-0.176c-0.202,0.059-0.348,0.116-0.288,0.277c0.06,0.167-0.26,0.457-0.26,0.457
		s0.26-0.29,0.145-0.394c-0.116-0.107-0.38,0.044-0.481,0.117c-0.1,0.066-0.391,0.453-0.55,0.44c-0.158-0.011-0.304,0-0.362,0.104
		s-0.447,0.688-0.639,0.666c-0.188-0.022-0.305-0.071-0.305-0.127c0-0.059,0.566-0.701-0.16-1.004c0,0-0.262,0.07-0.275-0.059
		c-0.016-0.13-0.479-0.337-0.871-0.034l-0.146-0.177c0,0-0.086-0.268-0.608-0.395c-0.522-0.128-0.266-0.209-0.551-0.255
		c-0.293-0.048-0.614-0.143-0.801-0.119c-0.188,0.023-0.507,0.257-0.535,0.149c-0.032-0.104-0.188-0.277-0.188-0.277
		s0.172-0.278-0.115-0.324c-0.293-0.048-0.438,0.173-0.553,0.126c-0.117-0.045-0.289-0.245-0.421-0.209
		c-0.134,0.035-0.48,0.244-0.45,0.352c0.029,0.104-0.176,0.269-0.176,0.269s-0.131-0.039-0.101-0.202
		c0.028-0.162-0.232-0.14-0.275-0.151c-0.041-0.011-0.089,0.035-0.261,0.141c-0.176,0.104-0.453,0.213-0.404,0.328
		c0.041,0.114-0.118,0.208-0.224,0.255c-0.099,0.046-0.17,0.13-0.183,0.174c-0.016,0.048-0.339,0.117-0.381,0.271
		c-0.043,0.151-0.013,0.347-0.16,0.372c-0.145,0.021-0.564,0.128-0.579,0.269c-0.013,0.141,0.015,0.277,0.157,0.209
		c0.149-0.068,0.505-0.223,0.422-0.105c-0.206,0.291-0.929,0.408-0.929,0.325c0-0.08,0.03-0.126-0.143-0.16
		c-0.175-0.037-0.419,0.128-0.479,0.092c-0.061-0.034,0.013-0.114,0.044-0.161c0.027-0.05,0.158-0.119-0.044-0.131
		c-0.206-0.013-0.466-0.082-0.466,0.072c0,0.151-0.029,0.361-0.104,0.277c-0.068-0.08-0.117-0.209-0.117-0.244
		c0-0.033-0.187,0.095-0.215,0.035c-0.031-0.06-0.074-0.246-0.146-0.246c-0.072,0-0.176,0.083-0.201,0.198
		c-0.031,0.116-0.059,0.222-0.247,0.222s-0.188,0.061-0.03,0.188c0.16,0.126,0.262,0.012,0.438,0.104
		c0.174,0.096,0.271,0.223,0.012,0.279c-0.261,0.06-0.203-0.011-0.419-0.08c-0.22-0.068-0.22-0.245-0.364-0.268
		c-0.146-0.023-0.432,0.114-0.492,0.242c-0.059,0.129,0.13,0.165,0.363,0.154c0.233-0.014,0.436,0.092,0.146,0.115
		c-0.291,0.022-0.48-0.058-0.67-0.104c-0.189-0.045-0.305-0.116-0.424,0.033c-0.113,0.155,0,0.13-0.243,0.188
		c-0.249,0.058-0.233,0.117-0.13,0.177c0.102,0.058,0.115,0.197,0.333,0.197c0.218,0,0.364,0.014,0.274,0.071
		c-0.627-0.004-0.667,0.384-0.463,0.452c0.201,0.067,0.172,0.259,0.071,0.278c-0.101,0.027-0.216-0.056-0.376,0.096
		c-0.16,0.152-0.092,0.217-0.436,0.151c-0.721-0.138-1.408,0.618-1.555,0.547c-0.143-0.071-0.317-0.197-0.406-0.171
		c-0.087,0.02-0.057,0.182-0.027,0.232c0.027,0.044-0.234,0.147-0.102,0.172c0.129,0.023,0.26,0.037,0.304,0.058
		c0.044,0.025,0,0.097-0.073,0.141c-0.069,0.048-0.188,0.13-0.188,0.174c0,0.048-0.038,0.184-0.086,0.199
		c-0.203,0.073-0.479,0.244-0.203,0.361c0.278,0.118,0.567,0.105,0.493,0.199c-0.072,0.094-0.307,0.06-0.332,0.161
		c-0.03,0.105-0.104,0.199-0.161,0.165c-0.057-0.034-0.044-0.139-0.058-0.195c-0.016-0.06-0.043-0.248-0.201-0.131
		c-0.162,0.116-0.105,0.233-0.178,0.267c-0.072,0.036-0.1,0.05-0.185,0.05c-0.091,0-0.206-0.037-0.266,0.022
		c-0.056,0.058-0.085,0.071-0.201-0.105c-0.116-0.174-0.466,0-0.437,0.117c0.03,0.115-0.158,0.338-0.219,0.324
		c-0.055-0.012-1.244,0.305-0.604,0.702c0.636,0.396,0.999,0.468,0.909,0.755c-0.086,0.294,0.205,0.491,0.568,0.723
		c0.361,0.234,0.275,0.539,0.058,0.62c-0.22,0.082-0.229,0.442,0.131,0.454c0.362,0.01,0.624-0.058,0.727,0.069
		c0.1,0.13,0.595,0.233,0.767,0.116c0.176-0.116,0.393-0.257,0.652-0.314c0.264-0.057,0.609-0.303,0.451-0.442
		c-0.159-0.141-0.497-0.519-0.497-0.519s1.216-0.112,1.345-0.218c0.131-0.104,1.01,0.477,1.221,0.42
		c2.109-0.567,0.891-0.434,1.074-0.467c1.301-0.238,0.776-0.16,0.849-0.128c0.075,0.037,0.275-0.078,0.29,0.025
		c0.016,0.105-0.263,0.313-0.059,0.313c0.201,0,0.957-0.579,0.916-0.453c-0.045,0.127-0.523,0.409-0.292,0.489
		c0.231,0.083,0.509-0.186,0.568-0.105c0.376,0.505,0.954,0.179,1.13,0.083c0,0,3.263,0.498,4.583-0.313
		c0.288-0.177,1.205-0.466,1.36-0.381c0.734,0.403,2.61-0.496,2.61-0.707c0-0.209,2.034-1.57,2.12-1.675
		C41.236,31.091,41.935,26.108,41.792,26.005z"/>
	
		<linearGradient id="SVGID_7_" gradientUnits="userSpaceOnUse" x1="184.2656" y1="-122.7437" x2="184.2656" y2="-135.6088" gradientTransform="matrix(0.9824 0.1866 0.1533 -0.8068 -131.4466 -105.6964)">
		<stop  offset="0" style="stop-color:#FFFFFF"/>
		<stop  offset="1" style="stop-color:#FFFFFF;stop-opacity:0"/>
	</linearGradient>
	<path fill="url(#SVGID_7_)" d="M40.879,30.707c0.033,0.151-0.35,0.34-0.35,0.34s0.32-0.201,0.218-0.312
		c-0.101-0.11-0.401-0.03-0.519,0.014c-0.118,0.039-0.485,0.314-0.649,0.275c-0.164-0.037-0.315-0.056-0.396,0.022
		c-0.078,0.078-0.586,0.505-0.779,0.452c-0.191-0.055-0.305-0.117-0.294-0.167c0.011-0.049,0.71-0.494,0.006-0.884
		c0,0-0.282,0.011-0.274-0.102c0.008-0.114-0.439-0.378-0.899-0.19l-0.12-0.179c0,0-0.044-0.241-0.563-0.445
		c-0.521-0.206-0.24-0.228-0.529-0.319c-0.297-0.094-0.613-0.236-0.811-0.247c-0.2-0.017-0.572,0.123-0.584,0.027
		c-0.015-0.095-0.146-0.273-0.146-0.273s0.227-0.204-0.065-0.296c-0.295-0.096-0.485,0.066-0.594,0.003
		c-0.115-0.056-0.26-0.26-0.402-0.255c-0.145,0.007-0.541,0.124-0.529,0.218c0.014,0.094-0.229,0.201-0.229,0.201
		s-0.129-0.06-0.07-0.194c0.058-0.133-0.217-0.161-0.26-0.179C32,28.2,31.943,28.231,31.746,28.288
		c-0.201,0.057-0.507,0.101-0.479,0.208c0.024,0.104-0.159,0.154-0.277,0.175c-0.107,0.023-0.197,0.078-0.219,0.114
		c-0.026,0.037-0.373,0.039-0.444,0.161c-0.069,0.121-0.072,0.293-0.229,0.291c-0.154-0.012-0.61,0.005-0.648,0.12
		c-0.039,0.118-0.033,0.24,0.125,0.21c0.169-0.033,0.161,0.016,0.025,0.066c-0.134,0.047-0.603,0.097-0.588,0.026
		c0.013-0.068,0.052-0.103-0.122-0.164c-0.174-0.063-0.458,0.034-0.512-0.007c-0.057-0.04,0.033-0.095,0.072-0.132
		c0.039-0.036,0.186-0.073-0.021-0.117c-0.212-0.05-0.471-0.155-0.498-0.024c-0.025,0.129-0.092,0.301-0.154,0.216
		c-0.058-0.078-0.086-0.2-0.08-0.23c0.008-0.027-0.211,0.047-0.23-0.009c-0.02-0.055-0.033-0.223-0.106-0.236
		c-0.077-0.012-0.199,0.039-0.245,0.134c-0.053,0.094-0.1,0.176-0.295,0.142c-0.195-0.034-0.207,0.019-0.064,0.156
		c0.144,0.138,0.27,0.06,0.436,0.168c0.166,0.112,0.244,0.241-0.036,0.243c-0.28,0.002-0.208-0.047-0.421-0.146
		c-0.217-0.1-0.186-0.248-0.332-0.297c-0.148-0.044-0.469,0.019-0.554,0.117c-0.084,0.099,0.107,0.163,0.35,0.2
		c0.245,0.031,0.438,0.157,0.132,0.126c-0.307-0.037-0.488-0.139-0.677-0.214s-0.298-0.155-0.447-0.05
		c-0.144,0.112-0.021,0.111-0.285,0.116c-0.269,0.001-0.263,0.056-0.166,0.127c0.097,0.066,0.086,0.189,0.312,0.229
		c0.228,0.04,0.376,0.079,0.273,0.11c-0.098,0.035-0.441-0.05-0.521,0.03s-0.238,0.174-0.038,0.272
		c0.198,0.093,0.134,0.251,0.024,0.25c-0.109,0.005-0.215-0.089-0.406,0.012c-0.191,0.1-0.131,0.167-0.479,0.051
		c-0.648-0.217-1.572,0.269-1.713,0.184c-0.135-0.09-0.295-0.229-0.391-0.227c-0.096,0.002-0.092,0.148-0.069,0.196
		c0.019,0.042-0.269,0.083-0.138,0.127c0.131,0.044,0.264,0.08,0.308,0.107c0.04,0.028-0.019,0.083-0.101,0.105
		c-0.08,0.028-0.219,0.076-0.227,0.113c-0.008,0.041-0.07,0.149-0.123,0.155c-0.225,0.025-0.54,0.119-0.275,0.271
		c0.27,0.151,0.572,0.194,0.479,0.261c-0.093,0.067-0.33-0.009-0.375,0.076c-0.048,0.085-0.141,0.149-0.197,0.11
		c-0.051-0.039-0.02-0.127-0.025-0.177c-0.004-0.055-0.031-0.273-0.185-0.147c-0.288,0.236-0.64,0.132-0.71,0.171
		c-0.069,0.041-0.104,0.046-0.191-0.127c-0.092-0.17-0.484-0.085-0.477,0.022c0.012,0.104-0.223,0.258-0.28,0.237
		c-0.06-0.023-1.349,0.03-0.754,0.486c0.593,0.456,0.957,0.583,0.813,0.81c-0.139,0.236,0.129,0.459,0.465,0.724
		c0.336,0.266,0.191,0.509-0.047,0.537c-0.243,0.032-0.316,0.337,0.055,0.417c0.375,0.073,0.66,0.063,0.745,0.19
		c0.08,0.129,0.578,0.31,0.776,0.237c0.202-0.066,0.453-0.145,0.734-0.147c0.283,0.002,0.686-0.146,0.545-0.294
		c-0.141-0.151-0.252-0.374-0.252-0.374s0.477-0.07,0.625,0.005c0.375,0.19,0.943,0.126,1.058,0.252
		c0.116,0.124,0.711,0.125,0.72,0.085c0.009-0.039,0.148-0.358,0.181-0.227c0.097,0.388,0.61,0.233,0.53,0.169
		c-0.08-0.068-0.273-0.186-0.11-0.22c0.163-0.032,0.386-0.28,0.49-0.179c0.104,0.099,0.37,0.094,0.417,0.238
		c0.051,0.145-0.07,0.285,0.125,0.311c0.197,0.024,0.453-0.147,0.522-0.104c0.072,0.044,0.302-0.018,0.298,0.072
		c-0.002,0.094-0.313,0.174-0.115,0.259c0.463,0.197,1.096-0.319,1.031-0.221c-0.068,0.102-0.615,0.255-0.39,0.363
		c0.226,0.116,0.562-0.063,0.609,0.018c0.303,0.501,0.962,0.324,1.159,0.278c0,0-0.021,0.41,0.527,0.546
		c0,0,0.033,0.388,0.741,0.377c0,0-0.185,0.05-0.062,0.298c0,0-0.742-0.213-0.939,0.009c0,0-0.349,0.088,0.114,0.278
		c0,0,0.147,0.646,1.084,0.42c0.153-0.037,0.234-0.073,0.34,0.029c0.103,0.104,2.028,1.01,2.519-0.174c0,0,0.509-0.19,0.583-0.474
		c0.075-0.286,0.218-0.077,0.552-0.169c0.33-0.101,0.42,0.075,0.328,0.146c-0.094,0.076-0.302,0.193-0.191,0.316
		c0.449,0.503,0.637,0.315,0.699-0.11c0.018-0.119-0.256-0.22,0.074-0.225c0.326-0.006,0.368-0.038,0.438,0.007
		c0.068,0.042,0.262,0.014,0.394-0.099c0.131-0.109,0.111-0.176,0.258-0.19c0.145-0.016,0.296,0.464,0.476,0.273
		c0.182-0.199-0.104-0.415,0.12-0.436c0.224-0.021,0.367,0.107,0.367,0.107l-0.257,0.345c0,0,0.418-0.061,0.436-0.149
		c0.019-0.092,0.049-0.154,0.063-0.218c0.01-0.059,0.113-0.1,0.24-0.03c0.124,0.075,0.202,0.149,0.08,0.221
		c-0.125,0.071-0.012,0.131,0.15,0.233c0.17,0.105,0.744-0.114,0.695-0.257c-0.045-0.143-0.136-0.239,0.053-0.33
		c0.191-0.09,0.142,0.014,0.331-0.001c0.189-0.02,0.226-0.19,0.276-0.355c0.05-0.169,0.621,0.022,0.729-0.049
		C40.787,36.144,40.845,30.558,40.879,30.707z"/>
	<g id="DO_NOT_EDIT_-_SHADOW_2_">
		<path id="SHADOW_2_" opacity="0.4" enable-background="new    " d="M83.057,37.161c0,15.755-5.51,21.267-21.267,21.267
			c-15.754,0-21.264-5.512-21.264-21.267c0-15.753,5.511-21.265,21.264-21.265C77.549,15.896,83.057,21.406,83.057,37.161z"/>
	</g>
	
		<linearGradient id="SVGID_8_" gradientUnits="userSpaceOnUse" x1="7423.9609" y1="1574.8311" x2="7423.9609" y2="1617.3633" gradientTransform="matrix(-1 0 0 1 7485.7539 -1559.7607)">
		<stop  offset="0" style="stop-color:#FFFFFF"/>
		<stop  offset="0.7434" style="stop-color:#CCCAC6"/>
		<stop  offset="1" style="stop-color:#AEACA8"/>
	</linearGradient>
	<path fill="url(#SVGID_8_)" d="M40.527,36.519c0,15.754,5.506,21.262,21.264,21.262c15.754,0,21.268-5.508,21.268-21.262
		c0-15.757-5.514-21.27-21.268-21.27C46.035,15.249,40.527,20.762,40.527,36.519z"/>
	
		<linearGradient id="HIGHLIGHT_RIM_1_" gradientUnits="userSpaceOnUse" x1="569.0996" y1="754.9268" x2="569.0996" y2="831.8378" gradientTransform="matrix(1 0 0 1 -507.3203 -743.9199)">
		<stop  offset="0" style="stop-color:#FFFFFF"/>
		<stop  offset="1" style="stop-color:#000000"/>
	</linearGradient>
	<path id="HIGHLIGHT_RIM_2_" fill="url(#HIGHLIGHT_RIM_1_)" fill-opacity="0.25" d="M61.78,15.249
		c-15.755,0-21.266,5.512-21.266,21.269c0,15.751,5.511,21.263,21.266,21.263c15.757,0,21.265-5.512,21.265-21.263
		C83.045,20.761,77.537,15.249,61.78,15.249z M61.78,57.262c-15.502,0-20.734-5.236-20.734-20.744
		c0-15.514,5.232-20.746,20.734-20.746c15.501,0,20.733,5.232,20.733,20.746C82.514,52.025,77.281,57.262,61.78,57.262z"/>
	<path opacity="0.15" enable-background="new    " d="M50.305,46.193c-1.031,0-1.869-0.837-1.869-1.866V28.568
		c0-1.028,0.838-1.866,1.869-1.866h0.185c0.237-0.762,0.946-1.313,1.784-1.313h1.971c0.836,0,1.547,0.552,1.784,1.313h17.253
		c1.029,0,1.868,0.838,1.868,1.866v15.759c0,1.029-0.837,1.866-1.868,1.866H50.305z M61.793,31.095c-3.133,0-5.682,2.55-5.682,5.683
		c0,3.131,2.549,5.678,5.682,5.678c3.131,0,5.68-2.547,5.68-5.678C67.473,33.645,64.924,31.095,61.793,31.095L61.793,31.095z
		 M52.93,29.128c-0.416,0-0.756,0.338-0.756,0.756c0,0.415,0.34,0.753,0.756,0.753c0.418,0,0.756-0.338,0.756-0.753
		C53.686,29.464,53.348,29.128,52.93,29.128L52.93,29.128z M72.098,29.982v-0.638h-2.856v0.638H72.098L72.098,29.982z
		 M61.793,42.255c-3.021,0-5.479-2.457-5.479-5.479s2.458-5.48,5.479-5.48s5.479,2.458,5.479,5.48S64.814,42.255,61.793,42.255
		L61.793,42.255z M61.793,33.719c-1.684,0-3.053,1.372-3.053,3.057c0,1.682,1.369,3.055,3.053,3.055
		c1.682,0,3.053-1.373,3.053-3.055C64.846,35.091,63.475,33.719,61.793,33.719L61.793,33.719z"/>
	<path opacity="0.3" enable-background="new    " d="M61.793,32.408c-2.72,0-4.922,2.203-4.922,4.923
		c0,2.721,2.202,4.924,4.922,4.924c2.723,0,4.924-2.203,4.924-4.924C66.717,34.611,64.514,32.408,61.793,32.408z M61.793,40.943
		c-1.992,0-3.611-1.619-3.611-3.612s1.619-3.608,3.611-3.608s3.609,1.616,3.609,3.608C65.402,39.324,63.785,40.943,61.793,40.943z
		 M73.28,27.813H55.557c0-0.724-0.59-1.313-1.314-1.313h-1.968c-0.726,0-1.312,0.59-1.312,1.313h-0.658
		c-0.726,0-1.314,0.588-1.314,1.314v15.751c0,0.727,0.59,1.314,1.314,1.314H73.28c0.728,0,1.312-0.588,1.312-1.314v-15.75
		C74.592,28.401,74.008,27.813,73.28,27.813z M52.93,31.754c-0.724,0-1.313-0.588-1.313-1.315c0-0.725,0.589-1.311,1.313-1.311
		c0.726,0,1.313,0.588,1.313,1.311C54.242,31.166,53.656,31.754,52.93,31.754z M61.793,43.568c-3.445,0-6.236-2.793-6.236-6.237
		c0-3.443,2.791-6.236,6.236-6.236s6.235,2.793,6.235,6.236C68.028,40.775,65.238,43.568,61.793,43.568z M72.654,31.095h-3.971
		v-1.75h3.971V31.095z"/>
	
		<linearGradient id="SVGID_9_" gradientUnits="userSpaceOnUse" x1="569.166" y1="-673.7261" x2="569.166" y2="-693.4204" gradientTransform="matrix(1 0 0 -1 -507.375 -647.7813)">
		<stop  offset="0" style="stop-color:#E11E28"/>
		<stop  offset="1" style="stop-color:#8C0F12"/>
	</linearGradient>
	<path fill="url(#SVGID_9_)" d="M61.793,31.851c-2.72,0-4.922,2.205-4.922,4.925c0,2.72,2.202,4.923,4.922,4.923
		c2.723,0,4.924-2.203,4.924-4.923C66.717,34.056,64.514,31.851,61.793,31.851z M61.793,40.385c-1.992,0-3.611-1.618-3.611-3.609
		c0-1.99,1.619-3.61,3.611-3.61s3.609,1.62,3.609,3.61C65.402,38.767,63.785,40.385,61.793,40.385z M73.28,27.256H55.557
		c0-0.723-0.59-1.311-1.314-1.311h-1.968c-0.726,0-1.312,0.588-1.312,1.311h-0.658c-0.726,0-1.314,0.592-1.314,1.313v15.759
		c0,0.724,0.59,1.311,1.314,1.311H73.28c0.728,0,1.312-0.587,1.312-1.311v-15.76C74.592,27.848,74.008,27.256,73.28,27.256z
		 M52.93,31.196c-0.724,0-1.313-0.588-1.313-1.313c0-0.728,0.589-1.313,1.313-1.313c0.726,0,1.313,0.59,1.313,1.313
		C54.242,30.608,53.656,31.196,52.93,31.196z M61.793,43.01c-3.445,0-6.236-2.79-6.236-6.234c0-3.443,2.791-6.235,6.236-6.235
		s6.235,2.792,6.235,6.235C68.028,40.22,65.238,43.01,61.793,43.01z M72.654,30.54h-3.971v-1.754h3.971V30.54z"/>
	<path opacity="0.6" fill="#FFFFFF" enable-background="new    " d="M52.93,31.196c-0.627,0-1.152-0.443-1.279-1.033
		c-0.021,0.09-0.034,0.18-0.034,0.275c0,0.728,0.59,1.315,1.313,1.315c0.725,0,1.313-0.588,1.313-1.315
		c0-0.096-0.012-0.186-0.033-0.275C54.084,30.753,53.561,31.196,52.93,31.196z M66.717,36.775c0-2.72-2.203-4.925-4.924-4.925
		c-2.72,0-4.922,2.205-4.922,4.925c0,0.094,0.006,0.186,0.014,0.277c0.144-2.589,2.281-4.646,4.906-4.646
		c2.627,0,4.764,2.056,4.908,4.646C66.705,36.961,66.717,36.867,66.717,36.775z M61.793,43.01c-3.352,0-6.076-2.641-6.223-5.957
		c-0.004,0.095-0.014,0.184-0.014,0.278c0,3.444,2.791,6.237,6.234,6.237c3.446,0,6.236-2.793,6.236-6.237
		c0-0.095-0.01-0.184-0.016-0.278C67.867,40.369,65.143,43.01,61.793,43.01z M61.793,40.385c-1.896,0-3.453-1.469-3.596-3.332
		c-0.008,0.094-0.016,0.186-0.016,0.278c0,1.993,1.619,3.612,3.609,3.612c1.993,0,3.61-1.619,3.61-3.612
		c0-0.093-0.006-0.185-0.015-0.278C65.247,38.916,63.689,40.385,61.793,40.385z M73.28,27.256H55.557
		c0-0.723-0.59-1.311-1.314-1.311h-1.968c-0.726,0-1.312,0.588-1.312,1.311h-0.658c-0.726,0-1.314,0.592-1.314,1.313v0.56
		c0-0.727,0.59-1.314,1.314-1.314h0.658c0-0.724,0.586-1.313,1.312-1.313h1.968c0.727,0,1.314,0.59,1.314,1.313H73.28
		c0.728,0,1.312,0.588,1.312,1.314v-0.56C74.592,27.848,74.008,27.256,73.28,27.256z M68.684,31.095h3.971V30.54h-3.971V31.095z"/>
</g>
<g id="CUT_AWAY_SOURROUND_SHAPE">
</g>
<g id="DO_NOT_EDIT_-_FOCAL_ZONE_GUIDES_ONLY">
</g>
<g id="_DO_NOT_EDIT_-_HIGHLIGHTS">
	
		<linearGradient id="HIGHLIGHT_RIM_3_" gradientUnits="userSpaceOnUse" x1="301.6602" y1="-279.9604" x2="301.6602" y2="-424.6269" gradientTransform="matrix(1 0 0 -1 -253.6602 -279.96)">
		<stop  offset="0" style="stop-color:#FFFFFF"/>
		<stop  offset="1" style="stop-color:#000000"/>
	</linearGradient>
	<path id="HIGHLIGHT_RIM" fill="url(#HIGHLIGHT_RIM_3_)" fill-opacity="0.25" d="M48,7.979c-29.635,0-40,10.365-40,40
		c0,29.632,10.365,40,40,40c29.637,0,40-10.367,40-40C88,18.344,77.637,7.979,48,7.979z M48,87.002c-29.159,0-39-9.848-39-39.024
		C9,18.803,18.841,8.956,48,8.956c29.158,0,39,9.847,39,39.022C87,77.154,77.158,87.002,48,87.002z"/>
	<g id="DARK_BEVEL">
		<path id="SQUIRCLE" display="none" fill="#FFFFFF" fill-opacity="0.05" d="M48,87.979c-29.635,0-40-10.367-40-40
			c0-29.634,10.365-40,40-40c29.637,0,40,10.365,40,40C88,77.611,77.637,87.979,48,87.979z"/>
		<path opacity="0.02" enable-background="new    " d="M9.478,64.25C13.244,81.52,24.624,87.979,48,87.979
			c23.378,0,34.756-6.459,38.521-23.729H9.478z"/>
		<path opacity="0.02" enable-background="new    " d="M10.242,67.25C14.659,82.271,26.031,87.979,48,87.979
			c21.971,0,33.342-5.707,37.758-20.729H10.242z"/>
		<path opacity="0.02" enable-background="new    " d="M11.258,70.25C16.284,83.041,27.555,87.979,48,87.979
			c20.445,0,31.717-4.938,36.742-17.729H11.258z"/>
		<path opacity="0.02" enable-background="new    " d="M12.636,73.25C18.211,83.814,29.241,87.979,48,87.979
			c18.76,0,29.79-4.162,35.365-14.729H12.636z"/>
		<path opacity="0.02" enable-background="new    " d="M13.797,75.25C19.685,84.348,30.47,87.979,48,87.979
			c17.531,0,28.316-3.631,34.203-12.729H13.797z"/>
		<path opacity="0.02" enable-background="new    " d="M15.255,77.25C21.396,84.878,31.821,87.979,48,87.979
			c16.18,0,26.604-3.101,32.745-10.729H15.255z"/>
		<path fill-opacity="0.02" d="M17.059,79.25c6.305,6.177,16.254,8.729,30.941,8.729c14.688,0,24.639-2.552,30.941-8.729H17.059z"/>
	</g>
	<g id="LIGHT_BEVEL">
		<path opacity="0.01" fill="#FFFFFF" enable-background="new    " d="M48,8.979c-29.635,0-40,10.365-40,40
			c0,2.889,0.102,5.588,0.307,8.119l0.219,0.021h78.958l0.209-0.019c0.205-2.531,0.308-5.23,0.308-8.121
			C88,19.344,77.637,8.979,48,8.979z"/>
		<path opacity="0.01" fill="#FFFFFF" enable-background="new    " d="M48,7.979c-29.635,0-40,10.365-40,40
			c0,1.05,0.017,2.073,0.043,3.078l0.701,0.062H87.26l0.697-0.063C87.982,50.051,88,49.029,88,47.978
			C88,18.344,77.637,7.979,48,7.979z"/>
		<path opacity="0.01" fill="#FFFFFF" enable-background="new    " d="M8.965,46.116h78.072l0.941-0.084
			C87.521,17.897,76.975,7.979,48,7.979c-28.973,0-39.521,9.919-39.978,38.054L8.965,46.116z"/>
		<path opacity="0.01" fill="#FFFFFF" enable-background="new    " d="M9.186,41.116h77.628l0.961-0.086
			C86.146,16.713,75.188,7.979,48,7.979c-27.185,0-38.147,8.735-39.775,33.053L9.186,41.116z"/>
		<path opacity="0.01" fill="#FFFFFF" enable-background="new    " d="M9.186,37.116h77.628c0.201,0,0.396-0.036,0.594-0.066
			C84.854,15.753,73.648,7.979,48,7.979c-25.646,0-36.854,7.774-39.408,29.072C8.789,37.08,8.984,37.116,9.186,37.116z"/>
		<path opacity="0.01" fill="#FFFFFF" enable-background="new    " d="M48,7.979c-24.004,0-35.363,6.805-38.814,25.138h77.628
			C83.363,14.783,72.006,7.979,48,7.979z"/>
		<path opacity="0.01" fill="#FFFFFF" enable-background="new    " d="M84.074,29.67l1.6-0.376c0.083-0.02,0.158-0.058,0.239-0.084
			C81.605,13.805,70.221,7.979,48,7.979c-22.218,0-33.604,5.827-37.913,21.231c0.081,0.026,0.156,0.064,0.239,0.084l1.599,0.376
			c0.226,0.053,0.456,0.08,0.688,0.08h70.774C83.618,29.75,83.85,29.723,84.074,29.67z"/>
		<path opacity="0.01" fill="#FFFFFF" enable-background="new    " d="M12.613,26.75h70.774l1.6-0.376
			C80.091,13.093,68.794,7.979,48,7.979c-20.792,0-32.09,5.115-36.986,18.395L12.613,26.75z"/>
		<path opacity="0.01" fill="#FFFFFF" enable-background="new    " d="M12.613,24.75h70.774c0.305,0,0.594-0.081,0.859-0.208
			C78.999,12.621,67.811,7.979,48,7.979c-19.808,0-30.998,4.643-36.247,16.563C12.019,24.669,12.309,24.75,12.613,24.75z"/>
		<path opacity="0.01" fill="#FFFFFF" enable-background="new    " d="M83.387,22.75C77.82,12.153,66.786,7.979,48,7.979
			c-18.785,0-29.819,4.174-35.387,14.771H83.387z"/>
	</g>
</g>
</svg>
